<?xml version="1.0" encoding="UTF-8" standalone="no" ?>
<!DOCTYPE svg PUBLIC "-//W3C//DTD SVG 1.1//EN" "http://www.w3.org/Graphics/SVG/1.1/DTD/svg11.dtd">
<svg xmlns="http://www.w3.org/2000/svg" xmlns:xlink="http://www.w3.org/1999/xlink" version="1.1" width="1080" height="1080" viewBox="0 0 1080 1080" xml:space="preserve">
<desc>Created with Fabric.js 5.2.4</desc>
<defs>
</defs>
<g transform="matrix(1 0 0 1 540 540)" id="22609ed8-3960-4b03-b71e-fcdbadbf966d"  >
</g>
<g transform="matrix(1 0 0 1 540 540)" id="9d3d8fe6-68e0-4fb4-9131-e4f764262ac8"  >
<rect style="stroke: none; stroke-width: 1; stroke-dasharray: none; stroke-linecap: butt; stroke-dashoffset: 0; stroke-linejoin: miter; stroke-miterlimit: 4; fill: rgb(255,255,255); fill-rule: nonzero; opacity: 1; visibility: hidden;" vector-effect="non-scaling-stroke"  x="-540" y="-540" rx="0" ry="0" width="1080" height="1080" />
</g>
<g transform="matrix(3.09 0 0 3.09 557.25 464.67)"  >
<g style=""   >
		<g transform="matrix(1.4 0 0 1.4 -7.6 -19.12)"  >
<linearGradient id="SVGID_14" gradientUnits="objectBoundingBox" gradientTransform="matrix(1 0 0 1 0 0)"  x1="0" y1="0" x2="1" y2="0">
<stop offset="0%" style="stop-color:rgb(45,56,138);stop-opacity: 1"/>
<stop offset="100%" style="stop-color:rgb(0,174,239);stop-opacity: 1"/>
</linearGradient>
<path style="stroke: none; stroke-width: 1; stroke-dasharray: none; stroke-linecap: butt; stroke-dashoffset: 0; stroke-linejoin: miter; stroke-miterlimit: 4; fill: url(#SVGID_14); fill-rule: nonzero; opacity: 1;" vector-effect="non-scaling-stroke"  transform=" translate(-35, -41.5)" d="M 50 57 L 20 57 C 14.486 57 10 52.514 10 47 C 10 42.056 13.535 37.937 18.334 37.141 C 19.372 33.542 22.696 31 26.5 31 C 26.69 31 26.884 31.008 27.09 31.024 C 30.028 27.825 34.157 26 38.5 26 C 45.541 26 51.760999999999996 30.858 53.505 37.632 C 57.414 39.086 60 42.781 60 47 C 60 52.514 55.514 57 50 57 z M 26.5 33 C 23.404 33 20.723 35.202 20.125 38.236 L 19.981 38.967999999999996 L 19.238000000000003 39.038 C 15.112 39.428 12 42.851 12 47 C 12 51.411 15.589 55 20 55 L 50 55 C 54.411 55 58 51.411 58 47 C 58 43.469 55.735 40.397 52.365 39.356 L 51.807 39.184000000000005 L 51.682 38.614000000000004 C 50.342 32.463 44.798 28 38.5 28 C 34.564 28 30.83 29.722 28.255000000000003 32.725 L 27.901000000000003 33.137 L 27.363000000000003 33.065 C 27.08 33.027 26.793 33 26.5 33 z" stroke-linecap="round" />
</g>
		<g transform="matrix(1.4 0 0 1.4 -25.52 -23.47)"  >
<linearGradient id="SVGID_15" gradientUnits="objectBoundingBox" gradientTransform="matrix(1 0 0 1 0 0)"  x1="0" y1="0" x2="1" y2="0">
<stop offset="0%" style="stop-color:rgb(45,56,138);stop-opacity: 1"/>
<stop offset="100%" style="stop-color:rgb(0,174,239);stop-opacity: 1"/>
</linearGradient>
<path style="stroke: none; stroke-width: 1; stroke-dasharray: none; stroke-linecap: butt; stroke-dashoffset: 0; stroke-linejoin: miter; stroke-miterlimit: 4; fill: url(#SVGID_15); fill-rule: nonzero; opacity: 1;" vector-effect="non-scaling-stroke"  transform=" translate(-22.22, -38.42)" d="M 23.555 39.831 C 22.445 39.28 21.249 39 20 39 L 20 37 C 21.56 37 23.056 37.35 24.445 38.04 L 23.555 39.831 z" stroke-linecap="round" />
</g>
		<g transform="matrix(1.4 0 0 1.4 14.11 -23.66)"  >
<linearGradient id="SVGID_16" gradientUnits="objectBoundingBox" gradientTransform="matrix(1 0 0 1 0 0)"  x1="0" y1="0" x2="1" y2="0">
<stop offset="0%" style="stop-color:rgb(45,56,138);stop-opacity: 1"/>
<stop offset="100%" style="stop-color:rgb(0,174,239);stop-opacity: 1"/>
</linearGradient>
<path style="stroke: none; stroke-width: 1; stroke-dasharray: none; stroke-linecap: butt; stroke-dashoffset: 0; stroke-linejoin: miter; stroke-miterlimit: 4; fill: url(#SVGID_16); fill-rule: nonzero; opacity: 1;" vector-effect="non-scaling-stroke"  transform=" translate(-50.59, -38.28)" d="M 52.956 39.563 C 51.391000000000005 38.940000000000005 49.625 38.834 47.993 39.253 L 47.493 37.316 C 49.535000000000004 36.789 51.737 36.925000000000004 53.695 37.704 L 52.956 39.563 z" stroke-linecap="round" />
</g>
		<g transform="matrix(1.4 0 0 1.4 -16.12 -31.22)"  >
<linearGradient id="SVGID_17" gradientUnits="objectBoundingBox" gradientTransform="matrix(1 0 0 1 0 0)"  x1="0" y1="0" x2="1" y2="0">
<stop offset="0%" style="stop-color:rgb(45,56,138);stop-opacity: 1"/>
<stop offset="100%" style="stop-color:rgb(0,174,239);stop-opacity: 1"/>
</linearGradient>
<path style="stroke: none; stroke-width: 1; stroke-dasharray: none; stroke-linecap: butt; stroke-dashoffset: 0; stroke-linejoin: miter; stroke-miterlimit: 4; fill: url(#SVGID_17); fill-rule: nonzero; opacity: 1;" vector-effect="non-scaling-stroke"  transform=" translate(-28.95, -32.87)" d="M 30.67 34.734 C 29.466 33.616 28 33 26 33 L 26 31 C 29 31 30.331 31.806 31.906 33.269 L 30.67 34.734 z" stroke-linecap="round" />
</g>
		<g transform="matrix(1.4 0 0 1.4 20.54 -34.89)"  >
<linearGradient id="SVGID_18" gradientUnits="objectBoundingBox" gradientTransform="matrix(1 0 0 1 0 0)"  x1="0" y1="0" x2="1" y2="0">
<stop offset="0%" style="stop-color:rgb(45,56,138);stop-opacity: 1"/>
<stop offset="100%" style="stop-color:rgb(0,174,239);stop-opacity: 1"/>
</linearGradient>
<path style="stroke: none; stroke-width: 1; stroke-dasharray: none; stroke-linecap: butt; stroke-dashoffset: 0; stroke-linejoin: miter; stroke-miterlimit: 4; fill: url(#SVGID_18); fill-rule: nonzero; opacity: 1;" vector-effect="non-scaling-stroke"  transform=" translate(-55.19, -30.22)" d="M 59.271 39.154 L 57.64 36.635000000000005 C 59.561 35.391000000000005 60.708 33.284000000000006 60.708 31.000000000000007 C 60.708 27.30100000000001 57.699 24.29200000000001 54 24.29200000000001 C 52.054 24.29200000000001 50.207 25.13600000000001 48.93 26.60700000000001 L 46.663 24.64100000000001 C 48.51 22.512000000000008 51.184 21.291000000000007 53.998999999999995 21.291000000000007 C 59.352999999999994 21.291000000000007 63.706999999999994 25.646000000000008 63.706999999999994 30.99900000000001 C 63.708 34.306 62.05 37.354 59.271 39.154 z" stroke-linecap="round" />
</g>
		<g transform="matrix(1.4 0 0 1.4 18.16 -53.38)" id="SvgjsG3041"  >
<linearGradient id="SVGID_19" gradientUnits="objectBoundingBox" gradientTransform="matrix(1 0 0 1 0 0)"  x1="0" y1="0" x2="1" y2="0">
<stop offset="0%" style="stop-color:rgb(45,56,138);stop-opacity: 1"/>
<stop offset="100%" style="stop-color:rgb(0,174,239);stop-opacity: 1"/>
</linearGradient>
<rect style="stroke: none; stroke-width: 1; stroke-dasharray: none; stroke-linecap: butt; stroke-dashoffset: 0; stroke-linejoin: miter; stroke-miterlimit: 4; fill: url(#SVGID_19); fill-rule: nonzero; opacity: 1;" vector-effect="non-scaling-stroke"  x="-1.5" y="-3" rx="0" ry="0" width="3" height="6" />
</g>
		<g transform="matrix(1.4 0 0 1.4 38.42 -33.13)" id="SvgjsG3041"  >
<linearGradient id="SVGID_20" gradientUnits="objectBoundingBox" gradientTransform="matrix(1 0 0 1 0 0)"  x1="0" y1="0" x2="1" y2="0">
<stop offset="0%" style="stop-color:rgb(45,56,138);stop-opacity: 1"/>
<stop offset="100%" style="stop-color:rgb(0,174,239);stop-opacity: 1"/>
</linearGradient>
<rect style="stroke: none; stroke-width: 1; stroke-dasharray: none; stroke-linecap: butt; stroke-dashoffset: 0; stroke-linejoin: miter; stroke-miterlimit: 4; fill: url(#SVGID_20); fill-rule: nonzero; opacity: 1;" vector-effect="non-scaling-stroke"  x="-3" y="-1.5" rx="0" ry="0" width="6" height="3" />
</g>
		<g transform="matrix(0.99 0.99 -0.99 0.99 4.87 -47.81)" id="SvgjsG3041"  >
<linearGradient id="SVGID_21" gradientUnits="objectBoundingBox" gradientTransform="matrix(1 0 0 1 0 0)"  x1="0" y1="0" x2="1" y2="0">
<stop offset="0%" style="stop-color:rgb(45,56,138);stop-opacity: 1"/>
<stop offset="100%" style="stop-color:rgb(0,174,239);stop-opacity: 1"/>
</linearGradient>
<rect style="stroke: none; stroke-width: 1; stroke-dasharray: none; stroke-linecap: butt; stroke-dashoffset: 0; stroke-linejoin: miter; stroke-miterlimit: 4; fill: url(#SVGID_21); fill-rule: nonzero; opacity: 1;" vector-effect="non-scaling-stroke"  x="-2.835" y="-1.5" rx="0" ry="0" width="5.67" height="3" />
</g>
		<g transform="matrix(0.99 0.99 -0.99 0.99 32.85 -19.83)" id="SvgjsG3041"  >
<linearGradient id="SVGID_22" gradientUnits="objectBoundingBox" gradientTransform="matrix(1 0 0 1 0 0)"  x1="0" y1="0" x2="1" y2="0">
<stop offset="0%" style="stop-color:rgb(45,56,138);stop-opacity: 1"/>
<stop offset="100%" style="stop-color:rgb(0,174,239);stop-opacity: 1"/>
</linearGradient>
<rect style="stroke: none; stroke-width: 1; stroke-dasharray: none; stroke-linecap: butt; stroke-dashoffset: 0; stroke-linejoin: miter; stroke-miterlimit: 4; fill: url(#SVGID_22); fill-rule: nonzero; opacity: 1;" vector-effect="non-scaling-stroke"  x="-2.835" y="-1.5" rx="0" ry="0" width="5.67" height="3" />
</g>
		<g transform="matrix(0.99 0.99 -0.99 0.99 32.84 -47.81)" id="SvgjsG3041"  >
<linearGradient id="SVGID_23" gradientUnits="objectBoundingBox" gradientTransform="matrix(1 0 0 1 0 0)"  x1="0" y1="0" x2="1" y2="0">
<stop offset="0%" style="stop-color:rgb(45,56,138);stop-opacity: 1"/>
<stop offset="100%" style="stop-color:rgb(0,174,239);stop-opacity: 1"/>
</linearGradient>
<rect style="stroke: none; stroke-width: 1; stroke-dasharray: none; stroke-linecap: butt; stroke-dashoffset: 0; stroke-linejoin: miter; stroke-miterlimit: 4; fill: url(#SVGID_23); fill-rule: nonzero; opacity: 1;" vector-effect="non-scaling-stroke"  x="-1.5" y="-2.835" rx="0" ry="0" width="3" height="5.67" />
</g>
		<g transform="matrix(1.3 0 0 1.3 -0.24 36.16)"  >
<path style="stroke: none; stroke-width: 1; stroke-dasharray: none; stroke-linecap: butt; stroke-dashoffset: 0; stroke-linejoin: miter; stroke-miterlimit: 4; fill: rgb(19,125,197); fill-rule: nonzero; opacity: 1;" vector-effect="non-scaling-stroke"  transform=" translate(-83.34, -24)" d="M 1.6 23.16 C 1.6 12 1.84 7.6 7.84 7.6 C 13.84 7.6 14.08 12 14.08 23.16 C 14.08 35.96 13.84 40.4 7.84 40.4 C 1.8399999999999999 40.4 1.5999999999999996 35.96 1.5999999999999996 23.16 z M 5.6 23.16 C 5.6 34.72 5.6 36.4 7.84 36.4 C 10.08 36.4 10.08 34.72 10.08 23.159999999999997 C 10.08 12.759999999999996 10.08 10.799999999999997 7.84 10.799999999999997 C 5.6 10.799999999999997 5.6 12.759999999999998 5.6 23.159999999999997 z M 17.68 40 L 17.68 8 L 24.16 8 C 28.28 8 29.36 10.52 29.68 16.560000000000002 L 29.68 17.840000000000003 C 29.36 23.880000000000003 28.28 26.400000000000006 24.16 26.400000000000006 L 21.68 26.400000000000006 L 21.68 40.00000000000001 L 17.68 40.00000000000001 z M 21.68 23.2 L 24.16 23.2 C 25.36 23.2 25.8 22.2 25.96 17.84 L 25.96 16.56 C 25.8 12.2 25.36 11.2 24.16 11.2 L 21.68 11.2 L 21.68 23.2 z M 32.480000000000004 40 L 32.480000000000004 8 L 41.68000000000001 8 L 41.68000000000001 11.2 L 36.480000000000004 11.2 L 36.480000000000004 21.6 L 40.88 21.6 L 40.88 24.8 L 36.480000000000004 24.8 L 36.480000000000004 36 L 41.68000000000001 36 L 41.68000000000001 40 L 32.480000000000004 40 z M 44.480000000000004 40 L 44.480000000000004 8 L 48.080000000000005 8 L 53.32000000000001 27.6 L 53.28000000000001 27.200000000000003 L 53.28000000000001 8.000000000000004 L 57.28000000000001 8.000000000000004 L 57.28000000000001 40 L 53.68000000000001 40 L 48.440000000000005 22.4 L 48.480000000000004 22.799999999999997 L 48.480000000000004 40 L 44.480000000000004 40 z M 60.480000000000004 8 L 64.68 8 L 65.88000000000001 32.08 L 66.28000000000002 32.08 L 68.68000000000002 8 L 72.08000000000003 8 L 74.48000000000003 32.08 L 74.88000000000004 32.08 L 76.08000000000004 8 L 80.28000000000004 8 L 77.48000000000005 40 L 72.68000000000005 40 L 70.40000000000005 23.28 L 68.08000000000006 40 L 63.28000000000006 40 z M 83.48 40 L 83.48 8 L 92.68 8 L 92.68 11.2 L 87.48 11.2 L 87.48 21.6 L 91.88000000000001 21.6 L 91.88000000000001 24.8 L 87.48 24.8 L 87.48 36 L 92.68 36 L 92.68 40 L 83.48 40 z M 95.48 40 L 95.48 23.2 C 95.48 12.04 95.48 7.639999999999999 101.48 7.639999999999999 C 107.48 7.639999999999999 107.48 12.04 107.48 23.2 L 107.48 40 L 103.48 40 L 103.48 30.8 L 99.48 30.8 L 99.48 40 L 95.48 40 z M 99.48 27.6 L 103.48 27.6 L 103.48 23.200000000000003 C 103.48 12.800000000000002 103.48 10.840000000000003 101.48 10.840000000000003 C 99.48 10.840000000000003 99.48 12.800000000000004 99.48 23.200000000000003 L 99.48 27.6 z M 109.88000000000001 11.600000000000001 L 109.88000000000001 8.000000000000002 L 121.88000000000001 8.000000000000002 L 121.88000000000001 11.600000000000001 L 117.88000000000001 11.600000000000001 L 117.88000000000001 40 L 113.88000000000001 40 L 113.88000000000001 11.600000000000001 L 109.88000000000001 11.600000000000001 z M 124.28 40 L 124.28 8 L 128.28 8 L 128.28 21.6 L 132.28 21.6 L 132.28 8.000000000000002 L 136.28 8.000000000000002 L 136.28 40 L 132.28 40 L 132.28 24.8 L 128.28 24.8 L 128.28 40 L 124.28 40 z M 140.28 40 L 140.28 8 L 149.48 8 L 149.48 11.2 L 144.28 11.2 L 144.28 21.6 L 148.68 21.6 L 148.68 24.8 L 144.28 24.8 L 144.28 36 L 149.48 36 L 149.48 40 L 140.28 40 z M 152.28 40 L 152.28 8 L 158.76 8 C 162.88 8 164.28 10.52 164.28 15.36 C 164.28 19.72 163.76 22.2 162.52 23.4 L 162.52 23.639999999999997 C 163.56 23.999999999999996 163.88000000000002 25.879999999999995 164.28 30.559999999999995 L 165.08 39.99999999999999 L 161.08 39.99999999999999 L 160.56 30.559999999999995 C 160.28 25.799999999999997 159.56 24.799999999999997 158.36 24.799999999999997 L 156.28 24.799999999999997 L 156.28 40 L 152.28 40 z M 156.28 21.6 L 158.76 21.6 C 160.16 21.6 160.56 20.200000000000003 160.56 15.360000000000001 C 160.56 12.200000000000001 159.96 11.200000000000001 158.76 11.200000000000001 L 156.28 11.200000000000001 L 156.28 21.6 z" stroke-linecap="round" />
</g>
</g>
</g>
</svg>